# xmcd
# 
# Track frame offsets:
#     150
#     15238
#     62185
#     85635
#     130880
#     150650
# 
# Disc length: 2323
# 
# Revision: 4
# Processed by: cddbd v1.5.2PL0 Copyright (c) Steve Scherf et al.
# Submitted via: BonkEnc v1.0.8
# 
DISCID=3c091106
DTITLE=Montreux Jazz Festival - Blues Explosion
DYEAR=1991
DGENRE=Blues
TTITLE0=[John Hammond] No Money Down
TTITLE1=[Stevie Ray Vaughan and Double Trouble] Flood Down In Texas
TTITLE2=[Sugar Blue] Another Man Done Gone
TTITLE3=[Koko Taylor and The Blues Machine] Wang Dang Doodle
TTITLE4=[Luther "Guitar Junior" Johnsonb and The New Hawks] Walking The Dog
TTITLE5=[J.B. Hutto and The New Hawks] I Feel So Good
EXTD=
EXTT0=
EXTT1=
EXTT2=
EXTT3=
EXTT4=
EXTT5=
PLAYORDER=
